<svg id="calculator" xmlns="http://www.w3.org/2000/svg" width="43.239" height="48.055" viewBox="0 0 43.239 48.055">
  <g id="Сгруппировать_139" data-name="Сгруппировать 139" transform="translate(0)">
    <g id="Сгруппировать_138" data-name="Сгруппировать 138">
      <path id="Контур_1087" data-name="Контур 1087" d="M64.93,0H29.616a3.967,3.967,0,0,0-3.963,3.963V44.092a3.967,3.967,0,0,0,3.963,3.963H64.93a3.967,3.967,0,0,0,3.963-3.963V3.963A3.967,3.967,0,0,0,64.93,0Zm2.458,44.092A2.461,2.461,0,0,1,64.93,46.55H29.616a2.461,2.461,0,0,1-2.458-2.458V3.963A2.461,2.461,0,0,1,29.616,1.5H64.93a2.461,2.461,0,0,1,2.458,2.458Z" transform="translate(-25.653)"/>
    </g>
  </g>
  <g id="Сгруппировать_141" data-name="Сгруппировать 141" transform="translate(4.816 4.816)">
    <g id="Сгруппировать_140" data-name="Сгруппировать 140">
      <path id="Контур_1088" data-name="Контур 1088" d="M109.013,51.307h-30.5a1.557,1.557,0,0,0-1.555,1.555v9.631a1.557,1.557,0,0,0,1.555,1.555h30.5a1.557,1.557,0,0,0,1.555-1.555V52.862A1.557,1.557,0,0,0,109.013,51.307Zm.05,11.186a.05.05,0,0,1-.05.05h-30.5a.05.05,0,0,1-.05-.05V52.862a.05.05,0,0,1,.05-.05h30.5a.05.05,0,0,1,.05.05Z" transform="translate(-76.96 -51.307)"/>
    </g>
  </g>
  <g id="Сгруппировать_143" data-name="Сгруппировать 143" transform="translate(4.816 20.867)">
    <g id="Сгруппировать_142" data-name="Сгруппировать 142">
      <path id="Контур_1089" data-name="Контур 1089" d="M82.528,222.33H78.515a1.557,1.557,0,0,0-1.555,1.555v3.21a1.557,1.557,0,0,0,1.555,1.555h4.013a1.557,1.557,0,0,0,1.555-1.555v-3.21A1.557,1.557,0,0,0,82.528,222.33Zm.05,4.765a.05.05,0,0,1-.05.05H78.515a.05.05,0,0,1-.05-.05v-3.21a.05.05,0,0,1,.05-.05h4.013a.05.05,0,0,1,.05.05Z" transform="translate(-76.96 -222.33)"/>
    </g>
  </g>
  <g id="Сгруппировать_145" data-name="Сгруппировать 145" transform="translate(13.644 20.867)">
    <g id="Сгруппировать_144" data-name="Сгруппировать 144">
      <path id="Контур_1090" data-name="Контур 1090" d="M176.591,222.33h-4.013a1.557,1.557,0,0,0-1.555,1.555v3.21a1.557,1.557,0,0,0,1.555,1.555h4.013a1.557,1.557,0,0,0,1.555-1.555v-3.21A1.557,1.557,0,0,0,176.591,222.33Zm.05,4.765a.05.05,0,0,1-.05.05h-4.013a.05.05,0,0,1-.05-.05v-3.21a.05.05,0,0,1,.05-.05h4.013a.05.05,0,0,1,.05.05Z" transform="translate(-171.023 -222.33)"/>
    </g>
  </g>
  <g id="Сгруппировать_147" data-name="Сгруппировать 147" transform="translate(22.472 20.867)">
    <g id="Сгруппировать_146" data-name="Сгруппировать 146">
      <path id="Контур_1091" data-name="Контур 1091" d="M270.653,222.33H266.64a1.557,1.557,0,0,0-1.555,1.555v3.21a1.557,1.557,0,0,0,1.555,1.555h4.013a1.557,1.557,0,0,0,1.555-1.555v-3.21A1.557,1.557,0,0,0,270.653,222.33Zm.05,4.765a.05.05,0,0,1-.05.05H266.64a.05.05,0,0,1-.05-.05v-3.21a.05.05,0,0,1,.05-.05h4.013a.05.05,0,0,1,.05.05Z" transform="translate(-265.085 -222.33)"/>
    </g>
  </g>
  <g id="Сгруппировать_149" data-name="Сгруппировать 149" transform="translate(31.301 20.867)">
    <g id="Сгруппировать_148" data-name="Сгруппировать 148">
      <path id="Контур_1092" data-name="Контур 1092" d="M364.716,222.33H360.7a1.557,1.557,0,0,0-1.555,1.555v3.21a1.557,1.557,0,0,0,1.555,1.555h4.013a1.557,1.557,0,0,0,1.555-1.555v-3.21A1.557,1.557,0,0,0,364.716,222.33Zm.05,4.765a.05.05,0,0,1-.05.05H360.7a.05.05,0,0,1-.05-.05v-3.21a.05.05,0,0,1,.05-.05h4.013a.05.05,0,0,1,.05.05Z" transform="translate(-359.148 -222.33)"/>
    </g>
  </g>
  <g id="Сгруппировать_151" data-name="Сгруппировать 151" transform="translate(4.816 28.893)">
    <g id="Сгруппировать_150" data-name="Сгруппировать 150">
      <path id="Контур_1093" data-name="Контур 1093" d="M82.528,307.841H78.515A1.557,1.557,0,0,0,76.96,309.4v3.21a1.557,1.557,0,0,0,1.555,1.555h4.013a1.557,1.557,0,0,0,1.555-1.555V309.4A1.557,1.557,0,0,0,82.528,307.841Zm.05,4.765a.05.05,0,0,1-.05.05H78.515a.05.05,0,0,1-.05-.05V309.4a.05.05,0,0,1,.05-.05h4.013a.05.05,0,0,1,.05.05Z" transform="translate(-76.96 -307.841)"/>
    </g>
  </g>
  <g id="Сгруппировать_153" data-name="Сгруппировать 153" transform="translate(13.644 28.893)">
    <g id="Сгруппировать_152" data-name="Сгруппировать 152">
      <path id="Контур_1094" data-name="Контур 1094" d="M176.591,307.841h-4.013a1.557,1.557,0,0,0-1.555,1.555v3.21a1.557,1.557,0,0,0,1.555,1.555h4.013a1.557,1.557,0,0,0,1.555-1.555V309.4A1.557,1.557,0,0,0,176.591,307.841Zm.05,4.765a.05.05,0,0,1-.05.05h-4.013a.05.05,0,0,1-.05-.05V309.4a.05.05,0,0,1,.05-.05h4.013a.05.05,0,0,1,.05.05Z" transform="translate(-171.023 -307.841)"/>
    </g>
  </g>
  <g id="Сгруппировать_155" data-name="Сгруппировать 155" transform="translate(22.472 28.893)">
    <g id="Сгруппировать_154" data-name="Сгруппировать 154">
      <path id="Контур_1095" data-name="Контур 1095" d="M270.653,307.841H266.64a1.557,1.557,0,0,0-1.555,1.555v3.21a1.557,1.557,0,0,0,1.555,1.555h4.013a1.557,1.557,0,0,0,1.555-1.555V309.4A1.557,1.557,0,0,0,270.653,307.841Zm.05,4.765a.05.05,0,0,1-.05.05H266.64a.05.05,0,0,1-.05-.05V309.4a.05.05,0,0,1,.05-.05h4.013a.05.05,0,0,1,.05.05Z" transform="translate(-265.085 -307.841)"/>
    </g>
  </g>
  <g id="Сгруппировать_157" data-name="Сгруппировать 157" transform="translate(4.816 36.919)">
    <g id="Сгруппировать_156" data-name="Сгруппировать 156">
      <path id="Контур_1096" data-name="Контур 1096" d="M82.528,393.353H78.515a1.557,1.557,0,0,0-1.555,1.555v3.21a1.557,1.557,0,0,0,1.555,1.555h4.013a1.557,1.557,0,0,0,1.555-1.555v-3.21A1.557,1.557,0,0,0,82.528,393.353Zm.05,4.765a.05.05,0,0,1-.05.05H78.515a.05.05,0,0,1-.05-.05v-3.21a.05.05,0,0,1,.05-.05h4.013a.05.05,0,0,1,.05.05Z" transform="translate(-76.96 -393.353)"/>
    </g>
  </g>
  <g id="Сгруппировать_159" data-name="Сгруппировать 159" transform="translate(13.644 36.919)">
    <g id="Сгруппировать_158" data-name="Сгруппировать 158">
      <path id="Контур_1097" data-name="Контур 1097" d="M176.591,393.353h-4.013a1.557,1.557,0,0,0-1.555,1.555v3.21a1.557,1.557,0,0,0,1.555,1.555h4.013a1.557,1.557,0,0,0,1.555-1.555v-3.21A1.557,1.557,0,0,0,176.591,393.353Zm.05,4.765a.05.05,0,0,1-.05.05h-4.013a.05.05,0,0,1-.05-.05v-3.21a.05.05,0,0,1,.05-.05h4.013a.05.05,0,0,1,.05.05Z" transform="translate(-171.023 -393.353)"/>
    </g>
  </g>
  <g id="Сгруппировать_161" data-name="Сгруппировать 161" transform="translate(22.472 36.919)">
    <g id="Сгруппировать_160" data-name="Сгруппировать 160">
      <path id="Контур_1098" data-name="Контур 1098" d="M270.653,393.353H266.64a1.557,1.557,0,0,0-1.555,1.555v3.21a1.557,1.557,0,0,0,1.555,1.555h4.013a1.557,1.557,0,0,0,1.555-1.555v-3.21A1.557,1.557,0,0,0,270.653,393.353Zm.05,4.765a.05.05,0,0,1-.05.05H266.64a.05.05,0,0,1-.05-.05v-3.21a.05.05,0,0,1,.05-.05h4.013a.05.05,0,0,1,.05.05Z" transform="translate(-265.085 -393.353)"/>
    </g>
  </g>
  <g id="Сгруппировать_163" data-name="Сгруппировать 163" transform="translate(31.301 28.893)">
    <g id="Сгруппировать_162" data-name="Сгруппировать 162">
      <path id="Контур_1099" data-name="Контур 1099" d="M364.716,307.841H360.7a1.557,1.557,0,0,0-1.555,1.555v11.236a1.557,1.557,0,0,0,1.555,1.555h4.013a1.557,1.557,0,0,0,1.555-1.555V309.4A1.557,1.557,0,0,0,364.716,307.841Zm.05,12.791a.05.05,0,0,1-.05.05H360.7a.05.05,0,0,1-.05-.05V309.4a.05.05,0,0,1,.05-.05h4.013a.05.05,0,0,1,.05.05Z" transform="translate(-359.148 -307.841)"/>
    </g>
  </g>
  <g id="Сгруппировать_165" data-name="Сгруппировать 165" transform="translate(22.472 10.434)">
    <g id="Сгруппировать_164" data-name="Сгруппировать 164">
      <path id="Контур_1100" data-name="Контур 1100" d="M269.048,111.165h-3.21a.752.752,0,0,0,0,1.5h3.21a.752.752,0,1,0,0-1.5Z" transform="translate(-265.085 -111.165)"/>
    </g>
  </g>
  <g id="Сгруппировать_167" data-name="Сгруппировать 167" transform="translate(28.893 10.434)">
    <g id="Сгруппировать_166" data-name="Сгруппировать 166">
      <path id="Контур_1101" data-name="Контур 1101" d="M337.457,111.165h-3.21a.752.752,0,0,0,0,1.5h3.21a.752.752,0,1,0,0-1.5Z" transform="translate(-333.494 -111.165)"/>
    </g>
  </g>
  <g id="Сгруппировать_169" data-name="Сгруппировать 169" transform="translate(9.631 10.434)">
    <g id="Сгруппировать_168" data-name="Сгруппировать 168">
      <path id="Контур_1102" data-name="Контур 1102" d="M132.23,111.165h-3.21a.752.752,0,1,0,0,1.5h3.21a.752.752,0,1,0,0-1.5Z" transform="translate(-128.267 -111.165)"/>
    </g>
  </g>
  <g id="Сгруппировать_171" data-name="Сгруппировать 171" transform="translate(16.052 10.434)">
    <g id="Сгруппировать_170" data-name="Сгруппировать 170">
      <path id="Контур_1103" data-name="Контур 1103" d="M200.639,111.165h-3.21a.752.752,0,1,0,0,1.5h3.21a.752.752,0,1,0,0-1.5Z" transform="translate(-196.676 -111.165)"/>
    </g>
  </g>
</svg>
