<svg id="investment" xmlns="http://www.w3.org/2000/svg" width="48.055" height="48.053" viewBox="0 0 48.055 48.053">
  <g id="Сгруппировать_173" data-name="Сгруппировать 173" transform="translate(0 8.024)">
    <g id="Сгруппировать_172" data-name="Сгруппировать 172">
      <path id="Контур_1104" data-name="Контур 1104" d="M32.293,113.778,26.1,112.09l-.978-1.467a1.562,1.562,0,0,0-1.031-.67c-.038-.007-.077-.01-.116-.014v-1.928l.41-.341a3.962,3.962,0,0,0,1.376-2.418l.222-1.388h.45a2.36,2.36,0,0,0,2.358-2.358V99.9a2.361,2.361,0,0,0-1.807-2.292l.149-.931a9.649,9.649,0,1,0-19.056,0l.149.931A2.361,2.361,0,0,0,6.421,99.9v1.605a2.36,2.36,0,0,0,2.358,2.358h.45l.222,1.388a3.963,3.963,0,0,0,1.376,2.418l.41.341v1.928c-.039,0-.077.007-.116.014a1.561,1.561,0,0,0-1.031.67l-.978,1.467L2.92,113.778A3.971,3.971,0,0,0,0,117.6v5.574a2.36,2.36,0,0,0,2.358,2.358h30.5a2.36,2.36,0,0,0,2.358-2.358V117.6A3.971,3.971,0,0,0,32.293,113.778ZM26.746,99.107a.853.853,0,0,1,.542.793v1.605a.854.854,0,0,1-.853.853h-.209ZM8.778,102.358a.854.854,0,0,1-.853-.853V99.9a.854.854,0,0,1,.542-.793l.52,3.251Zm2.158,2.655L9.565,96.44a8.145,8.145,0,1,1,16.085,0l-1.372,8.574a2.458,2.458,0,0,1-.854,1.5L20.2,109.2a1.658,1.658,0,0,1-1.06.384H16.071a1.658,1.658,0,0,1-1.06-.384l-3.221-2.684A2.458,2.458,0,0,1,10.936,105.013Zm11.536,4.252v1.295l-4.866,3.649-4.866-3.649v-1.295l1.306,1.089a3.166,3.166,0,0,0,2.023.733h3.072a3.166,3.166,0,0,0,2.023-.733ZM5.618,124.028H2.358a.854.854,0,0,1-.853-.853V117.6a2.447,2.447,0,0,1,.336-1.234l3.182,2.651a1.651,1.651,0,0,1,.6,1.272Zm9.719,0H7.123V120.29a3.152,3.152,0,0,0-1.137-2.428l-3.012-2.51a2.442,2.442,0,0,1,.342-.123l5.957-1.625,3.216,4.5a1.561,1.561,0,0,0,1.052.636,1.529,1.529,0,0,0,.212.015,1.562,1.562,0,0,0,.973-.341l.577-.462a1.558,1.558,0,0,0,.679.918Zm-1.552-6.785a.05.05,0,0,1-.072-.01L10.5,112.727l.847-1.27a.05.05,0,0,1,.072-.012l4.965,3.724Zm3.068,6.785.614-4.916h.277l.614,4.916Zm1.606-6.471a.05.05,0,0,1-.05.05H16.8a.05.05,0,0,1-.05-.05V116.8l.853-.682.853.682v.762Zm5.341-6.112a.047.047,0,0,1,.039-.009.048.048,0,0,1,.033.022l.846,1.27L21.5,117.233a.047.047,0,0,1-.034.021.048.048,0,0,1-.038-.011l-2.593-2.074Zm4.29,8.845v3.738H19.876l-.644-5.154a1.558,1.558,0,0,0,.679-.918l.577.462a1.562,1.562,0,0,0,.973.341,1.528,1.528,0,0,0,.212-.015,1.561,1.561,0,0,0,1.052-.636l3.216-4.5L31.9,115.23a2.47,2.47,0,0,1,.342.123l-3.012,2.51A3.152,3.152,0,0,0,28.091,120.29Zm5.618,2.885a.854.854,0,0,1-.853.853H29.6V120.29a1.651,1.651,0,0,1,.6-1.272l3.182-2.651a2.447,2.447,0,0,1,.336,1.234Z" transform="translate(0 -85.504)"/>
    </g>
  </g>
  <g id="Сгруппировать_175" data-name="Сгруппировать 175" transform="translate(30.498 3.208)">
    <g id="Сгруппировать_174" data-name="Сгруппировать 174">
      <path id="Контур_1105" data-name="Контур 1105" d="M332.117,34.194a7.173,7.173,0,1,0,7.173,7.173A7.181,7.181,0,0,0,332.117,34.194Zm0,12.841a5.668,5.668,0,1,1,5.668-5.668A5.675,5.675,0,0,1,332.117,47.035Z" transform="translate(-324.944 -34.194)"/>
    </g>
  </g>
  <g id="Сгруппировать_177" data-name="Сгруппировать 177" transform="translate(34.511 5.616)">
    <g id="Сгруппировать_176" data-name="Сгруппировать 176">
      <path id="Контур_1106" data-name="Контур 1106" d="M371.061,63.887c-1.553-.431-1.857-.723-1.857-1.081,0-.2.625-.652,1.655-.652a1.938,1.938,0,0,1,1.645.608.752.752,0,0,0,1.388-.581,2.86,2.86,0,0,0-2.281-1.473V60.6a.752.752,0,1,0-1.5,0v.107c-1.414.219-2.408,1.048-2.408,2.1,0,1.709,1.781,2.2,2.959,2.531,1.553.431,1.857.723,1.857,1.081,0,.2-.625.652-1.655.652a1.938,1.938,0,0,1-1.645-.608.752.752,0,0,0-1.388.581,2.86,2.86,0,0,0,2.281,1.473v.109a.752.752,0,1,0,1.5,0v-.107c1.414-.219,2.408-1.048,2.408-2.1C374.019,64.709,372.239,64.215,371.061,63.887Z" transform="translate(-367.699 -59.847)"/>
    </g>
  </g>
  <g id="Сгруппировать_179" data-name="Сгруппировать 179" transform="translate(27.289 0)">
    <g id="Сгруппировать_178" data-name="Сгруппировать 178">
      <path id="Контур_1107" data-name="Контур 1107" d="M308.054,2.654a10.384,10.384,0,1,0-12.344,16.594l-.93,3.806a.752.752,0,0,0,.878.916,10.147,10.147,0,0,0,5.843-3.2,10.384,10.384,0,0,0,6.552-18.114ZM301.129,19.27a.752.752,0,0,0-.626.335,7.749,7.749,0,0,1-3.963,2.587l.766-3.136a.752.752,0,0,0-.374-.841,8.878,8.878,0,1,1,4.2,1.055Z" transform="translate(-290.746 -0.009)"/>
    </g>
  </g>
</svg>
