<svg id="portfolio" xmlns="http://www.w3.org/2000/svg" width="48.055" height="48.053" viewBox="0 0 48.055 48.053">
  <g id="Сгруппировать_180" data-name="Сгруппировать 180" transform="translate(0 0)">
    <path id="Контур_1108" data-name="Контур 1108" d="M44.092,32.075h-11l-.855-3.419a3.957,3.957,0,0,0-3.845-3h-8.73a3.958,3.958,0,0,0-3.845,3l-.855,3.419h-11A3.967,3.967,0,0,0,0,36.037V64.931a3.967,3.967,0,0,0,3.963,3.963H44.092a3.967,3.967,0,0,0,3.963-3.963V36.037A3.967,3.967,0,0,0,44.092,32.075ZM17.278,29.021a2.455,2.455,0,0,1,2.385-1.862h8.73a2.455,2.455,0,0,1,2.385,1.862l.763,3.054H29.782l-.66-2.64a.752.752,0,0,0-.73-.57h-8.73a.752.752,0,0,0-.73.57l-.66,2.64H16.515Zm10.953,3.054H19.824l.426-1.705H27.8ZM3.963,33.58H44.092a2.453,2.453,0,0,1,1.876.872L41.083,49.107a3.256,3.256,0,0,1-3.093,2.229h-10.8V49.681a1.557,1.557,0,0,0-1.555-1.555h-3.21a1.557,1.557,0,0,0-1.555,1.555v1.655h-10.8a3.257,3.257,0,0,1-3.093-2.229L2.087,34.452A2.453,2.453,0,0,1,3.963,33.58ZM22.372,52.942V49.682a.05.05,0,0,1,.05-.05h3.21a.05.05,0,0,1,.05.05v3.261Zm3.311,1.5V56.1a.05.05,0,0,1-.05.05h-3.21a.05.05,0,0,1-.05-.05V54.447ZM46.55,64.931a2.461,2.461,0,0,1-2.458,2.458H3.963A2.461,2.461,0,0,1,1.5,64.931V37.464l4.04,12.119a4.759,4.759,0,0,0,4.521,3.258h10.8V56.1a1.557,1.557,0,0,0,1.555,1.555h3.21A1.557,1.557,0,0,0,27.188,56.1V52.842h10.8a4.759,4.759,0,0,0,4.521-3.258l4.04-12.119V64.931Z" transform="translate(0 -25.654)"/>
  </g>
</svg>
