<svg id="profits-1" xmlns="http://www.w3.org/2000/svg" width="28.793" height="48.055" viewBox="0 0 28.793 48.055">
  <g id="Сгруппировать_182" data-name="Сгруппировать 182" transform="translate(0)">
    <g id="Сгруппировать_181" data-name="Сгруппировать 181">
      <path id="Контур_1109" data-name="Контур 1109" d="M129.049,3.21H117.763V.752a.752.752,0,0,0-1.5,0V3.21H104.972a2.36,2.36,0,0,0-2.358,2.358V34.461a2.36,2.36,0,0,0,2.358,2.358h3.674L104.28,47.006a.752.752,0,1,0,1.383.593l2.556-5.965H125.8l2.556,5.965a.752.752,0,0,0,1.383-.593l-4.366-10.187h3.674a2.36,2.36,0,0,0,2.358-2.358V5.568A2.36,2.36,0,0,0,129.049,3.21ZM108.864,40.129l1.419-3.311h13.454l1.419,3.311ZM129.9,34.461a.854.854,0,0,1-.853.853H104.972a.854.854,0,0,1-.853-.853V5.568a.854.854,0,0,1,.853-.853h24.078a.854.854,0,0,1,.853.853Z" transform="translate(-102.614)"/>
    </g>
  </g>
  <g id="Сгруппировать_184" data-name="Сгруппировать 184" transform="translate(3.211 11.236)">
    <g id="Сгруппировать_183" data-name="Сгруппировать 183">
      <path id="Контур_1110" data-name="Контур 1110" d="M159.189,120.392c0-.011,0-.021,0-.032s0-.028-.006-.041-.006-.024-.009-.036-.006-.024-.009-.035-.008-.023-.012-.035-.008-.023-.013-.035-.01-.021-.015-.032-.011-.023-.017-.035l-.018-.03c-.007-.011-.013-.022-.02-.033s-.016-.022-.024-.032l-.02-.026a.755.755,0,0,0-.105-.105l-.026-.019-.033-.024-.032-.019-.031-.019-.033-.016-.034-.016-.032-.012-.037-.013-.033-.008-.039-.01-.037-.006-.036-.005-.065,0h-4.022a.752.752,0,1,0,0,1.5h2.2l-8.3,8.3a.05.05,0,0,1-.071,0l-2.075-2.075a1.555,1.555,0,0,0-2.2,0l-6.939,6.939a.752.752,0,1,0,1.064,1.064l6.939-6.939a.05.05,0,0,1,.071,0l2.075,2.075a1.557,1.557,0,0,0,2.2,0l8.3-8.3v2.2a.752.752,0,1,0,1.5,0v-4.013C159.193,120.442,159.191,120.417,159.189,120.392Z" transform="translate(-136.821 -119.714)"/>
    </g>
  </g>
  <g id="Сгруппировать_186" data-name="Сгруппировать 186" transform="translate(13.644 24.88)">
    <g id="Сгруппировать_185" data-name="Сгруппировать 185">
      <path id="Контур_1111" data-name="Контур 1111" d="M248.735,265.084a.752.752,0,0,0-.752.752v5.618a.752.752,0,1,0,1.5,0v-5.618A.753.753,0,0,0,248.735,265.084Z" transform="translate(-247.983 -265.084)"/>
    </g>
  </g>
  <g id="Сгруппировать_188" data-name="Сгруппировать 188" transform="translate(10.434 23.275)">
    <g id="Сгруппировать_187" data-name="Сгруппировать 187">
      <path id="Контур_1112" data-name="Контур 1112" d="M214.531,247.982a.752.752,0,0,0-.752.752v7.223a.752.752,0,1,0,1.5,0v-7.223A.753.753,0,0,0,214.531,247.982Z" transform="translate(-213.779 -247.982)"/>
    </g>
  </g>
  <g id="Сгруппировать_190" data-name="Сгруппировать 190" transform="translate(16.854 23.275)">
    <g id="Сгруппировать_189" data-name="Сгруппировать 189">
      <path id="Контур_1113" data-name="Контур 1113" d="M282.939,247.982a.752.752,0,0,0-.752.752v7.223a.752.752,0,1,0,1.5,0v-7.223A.752.752,0,0,0,282.939,247.982Z" transform="translate(-282.187 -247.982)"/>
    </g>
  </g>
  <g id="Сгруппировать_192" data-name="Сгруппировать 192" transform="translate(20.065 20.065)">
    <g id="Сгруппировать_191" data-name="Сгруппировать 191">
      <path id="Контур_1114" data-name="Контур 1114" d="M317.144,213.778a.752.752,0,0,0-.752.752v10.434a.752.752,0,0,0,1.5,0V214.53A.752.752,0,0,0,317.144,213.778Z" transform="translate(-316.392 -213.778)"/>
    </g>
  </g>
  <g id="Сгруппировать_194" data-name="Сгруппировать 194" transform="translate(23.275 18.46)">
    <g id="Сгруппировать_193" data-name="Сгруппировать 193">
      <path id="Контур_1115" data-name="Контур 1115" d="M351.348,196.676a.752.752,0,0,0-.752.752v12.039a.752.752,0,1,0,1.5,0V197.428A.752.752,0,0,0,351.348,196.676Z" transform="translate(-350.596 -196.676)"/>
    </g>
  </g>
  <g id="Сгруппировать_196" data-name="Сгруппировать 196" transform="translate(7.223 26.485)">
    <g id="Сгруппировать_195" data-name="Сгруппировать 195">
      <path id="Контур_1116" data-name="Контур 1116" d="M180.326,282.187a.752.752,0,0,0-.752.752v4.013a.752.752,0,0,0,1.5,0v-4.013A.752.752,0,0,0,180.326,282.187Z" transform="translate(-179.574 -282.187)"/>
    </g>
  </g>
  <g id="Сгруппировать_198" data-name="Сгруппировать 198" transform="translate(4.013 28.893)">
    <g id="Сгруппировать_197" data-name="Сгруппировать 197">
      <path id="Контур_1117" data-name="Контур 1117" d="M146.122,307.84a.752.752,0,0,0-.752.752V310.2a.752.752,0,0,0,1.5,0v-1.605A.753.753,0,0,0,146.122,307.84Z" transform="translate(-145.37 -307.84)"/>
    </g>
  </g>
  <g id="Сгруппировать_200" data-name="Сгруппировать 200" transform="translate(6.421 8.026)">
    <g id="Сгруппировать_199" data-name="Сгруппировать 199">
      <path id="Контур_1118" data-name="Контур 1118" d="M186.222,85.511H171.775a.752.752,0,0,0,0,1.5h14.447a.752.752,0,0,0,0-1.5Z" transform="translate(-171.023 -85.511)"/>
    </g>
  </g>
  <g id="Сгруппировать_202" data-name="Сгруппировать 202" transform="translate(10.434 11.236)">
    <g id="Сгруппировать_201" data-name="Сгруппировать 201">
      <path id="Контур_1119" data-name="Контур 1119" d="M220.951,119.716H214.53a.752.752,0,0,0,0,1.5h6.421a.752.752,0,1,0,0-1.5Z" transform="translate(-213.778 -119.716)"/>
    </g>
  </g>
</svg>
